PathFileType  4	(X/Y/Z) C:\Users\antoi\Documents\MyRepositories\mobilecap\ResultsAnalysis
DataRate	CameraRate	NumFrames	NumMarkers	Units	OrigDataRate	OrigDataStartFrame	OrigNumFrames
100.0	100.0	6	51	mm	100.0	279	371
Frame#	Time	r_knee			r_shank_antsup			r_ankle			r_calc			r_5meta			r_toe			L_knee			L_shank_antsup			L_ankle			L_calc			L_5meta			L_toe			r_sh2			r_sh3			r_sh4			L_sh2			L_sh3			r_thigh1			r_thigh2			r_thigh3			r_thigh4			r_thigh5			L_thigh1			L_thigh2			L_thigh3			L_thigh4			r.ASIS			r.PSIS			L.ASIS			L.PSIS			C7			R_Shoulder			L_Shoulder			R_Sternum			L_Sternum			R_humerus			R_elbow_med			R_elbow_lat			R_forearm			R_wrist_radius			R_wrist_ulna			L_humerus			L_elbow_med			L_elbow_lat			L_forearm			L_wrist_radius			L_wrist_ulna			R_HJC			L_HJC			R_HJC_reg			L_HJC_reg			
		X1	Y1	Z1	X2	Y2	Z2	X3	Y3	Z3	X4	Y4	Z4	X5	Y5	Z5	X6	Y6	Z6	X7	Y7	Z7	X8	Y8	Z8	X9	Y9	Z9	X10	Y10	Z10	X11	Y11	Z11	X12	Y12	Z12	X13	Y13	Z13	X14	Y14	Z14	X15	Y15	Z15	X16	Y16	Z16	X17	Y17	Z17	X18	Y18	Z18	X19	Y19	Z19	X20	Y20	Z20	X21	Y21	Z21	X22	Y22	Z22	X23	Y23	Z23	X24	Y24	Z24	X25	Y25	Z25	X26	Y26	Z26	X27	Y27	Z27	X28	Y28	Z28	X29	Y29	Z29	X30	Y30	Z30	X31	Y31	Z31	X32	Y32	Z32	X33	Y33	Z33	X34	Y34	Z34	X35	Y35	Z35	X36	Y36	Z36	X37	Y37	Z37	X38	Y38	Z38	X39	Y39	Z39	X40	Y40	Z40	X41	Y41	Z41	X42	Y42	Z42	X43	Y43	Z43	X44	Y44	Z44	X45	Y45	Z45	X46	Y46	Z46	X47	Y47	Z47	X48	Y48	Z48	X49	Y49	Z49	X50	Y50	Z50	X51	Y51	Z51	

279	2.78000000	-236.24102	840.15182	-398.34898	-199.48837	737.54635	-382.01091	-230.65486	455.14055	-396.69996	-255.17294	469.05640	-462.94360	-194.19042	328.90499	-362.34113	-140.01699	318.72883	-382.10538	-248.77487	834.59775	-789.23852	-200.95449	736.82021	-769.86997	-273.41799	456.52076	-777.59829	-302.98945	473.70948	-724.97896	-242.25863	319.22252	-792.61000	-188.92118	305.02387	-754.98385	-189.69237	627.06605	-380.29722	-272.69154	729.43598	-364.43698	-272.04960	618.14877	-380.25857	-275.33336	756.83149	-815.52181	-282.15424	635.56339	-826.93661	-147.31471	1145.69831	-414.57888	-142.51301	1038.20364	-399.86785	-194.13855	1012.34516	-367.50585	-258.52734	1138.22062	-397.65830	-247.99556	1024.12193	-378.53801	-172.42494	1125.17270	-797.97623	-163.25739	989.51987	-803.48676	-284.72979	1128.02848	-806.86405	-273.15661	986.54919	-807.22622	-101.72298	1285.51880	-484.57398	-272.94747	1359.21792	-548.72661	-111.93930	1290.44442	-729.53404	-281.22724	1361.26924	-661.91223	-218.41327	1805.26070	-599.87184	-184.53484	1803.35627	-491.90707	-162.28819	1823.76499	-711.43047	-91.54935	1757.67562	-579.83629	-90.26828	1750.21198	-620.29776	-160.48444	1823.19046	-380.62990	-103.58235	1745.61798	-192.50816	-146.39800	1813.80599	-194.67739	-60.91354	1909.48596	-207.86744	10.54798	1974.87275	-236.12349	22.80475	1974.93306	-204.06207	-128.81989	1860.19296	-819.43063	-84.71793	1832.85539	-1016.01747	-122.72405	1893.89065	-1001.66129	-70.43501	1971.44465	-1046.75834	7.17996	2037.68749	-1131.35380	-18.55828	2038.31130	-1153.66515	-202.43052	1230.73240	-508.86134	-205.00973	1229.21538	-698.21576	-183.74046	1230.62351	-513.99298	-195.54889	1233.54662	-675.38117	
280	2.79000000	-233.01204	850.67423	-398.23996	-195.67855	748.16789	-384.39840	-231.36139	466.21546	-397.52075	-257.38996	480.46655	-463.07679	-195.30329	339.11280	-365.39125	-141.91990	328.63054	-386.74421	-245.07995	844.48031	-788.99051	-197.31567	747.52102	-767.84038	-269.96648	467.31084	-777.04419	-300.26189	484.81378	-724.73280	-238.69561	329.84063	-790.47374	-185.87587	315.89719	-751.91670	-187.24439	637.64513	-382.91052	-267.92150	740.91750	-363.11234	-269.27524	629.88258	-378.84109	-270.53964	767.63872	-815.49269	-276.93999	646.31492	-826.95061	-145.51927	1156.71878	-415.29093	-140.38035	1049.30670	-401.14791	-191.30623	1023.23696	-367.82088	-256.61330	1148.83439	-397.74347	-245.38234	1034.71380	-378.30503	-171.06564	1135.63640	-798.43683	-160.46499	1000.10674	-803.02056	-283.27591	1137.33119	-807.29026	-270.18231	995.80302	-808.33393	-100.67160	1295.76633	-486.05743	-272.79099	1369.99090	-549.40794	-111.26999	1301.11768	-728.81301	-280.76621	1372.48146	-662.72145	-218.29419	1814.94108	-600.59561	-184.24106	1813.08848	-488.13544	-162.54770	1833.66736	-713.65429	-88.69822	1771.99750	-577.59104	-87.33153	1764.24542	-619.30218	-162.98254	1827.49946	-374.93316	-112.08008	1738.32955	-190.40605	-151.21502	1808.73208	-190.67903	-61.04711	1901.32644	-194.59715	14.28170	1963.83296	-218.22251	25.67101	1961.09176	-186.46641	-130.83770	1865.71826	-825.14498	-93.12834	1829.70426	-1021.34160	-129.00547	1892.71914	-1008.65419	-75.88617	1966.41396	-1059.35028	0.13320	2025.39859	-1148.95953	-26.93348	2026.82669	-1170.54985	-202.05778	1241.33735	-509.56405	-204.50091	1240.09162	-698.92234	-183.02876	1241.32074	-515.52516	-194.28790	1244.83966	-675.50124	
281	2.80000000	-230.70736	861.17094	-398.35610	-191.90130	758.02602	-387.13500	-231.64572	476.54023	-397.61169	-259.23233	490.75766	-462.48342	-195.46695	348.64294	-367.53842	-143.12429	337.76875	-391.19786	-241.99761	854.26892	-788.57566	-193.89347	757.22082	-764.20570	-265.72637	477.14257	-776.75464	-296.71024	494.51727	-724.69501	-233.57270	339.81749	-789.62122	-181.07590	326.09464	-750.22152	-184.48998	647.38888	-385.71033	-262.79328	751.56876	-361.40210	-266.12281	640.47921	-377.31036	-264.13032	777.45566	-815.69893	-269.60472	656.14455	-827.68174	-143.31298	1166.59319	-416.33836	-138.72913	1059.29129	-402.38807	-189.32611	1033.18732	-368.67881	-254.33987	1159.19786	-397.58225	-243.33738	1045.20937	-378.73879	-169.43030	1145.01944	-798.52423	-158.31514	1009.49037	-802.51610	-281.53551	1146.28808	-808.00123	-267.95818	1004.83580	-808.99047	-99.62050	1305.87721	-487.00621	-272.43493	1379.92165	-550.13197	-110.87592	1310.93221	-728.96428	-280.36625	1382.88275	-663.10369	-218.27625	1823.81448	-601.03823	-183.98495	1821.64323	-484.66448	-162.94557	1842.71740	-715.72869	-87.84906	1784.69160	-577.78269	-85.39904	1778.66230	-617.25137	-166.76449	1829.77987	-371.18604	-120.46444	1730.67369	-189.06161	-155.82576	1803.02209	-186.79402	-61.10519	1891.42816	-182.28863	17.90977	1950.41844	-200.97258	27.43517	1945.42013	-167.68760	-132.67433	1870.02348	-830.01006	-101.69262	1825.31533	-1026.11317	-135.08298	1890.27030	-1015.15032	-80.90825	1959.86278	-1070.96406	-7.18803	2010.80279	-1165.36150	-35.36575	2013.14518	-1185.97356	-201.40772	1251.46522	-510.04412	-204.10025	1250.10334	-699.39792	-182.12697	1250.83829	-516.60361	-193.32068	1255.01929	-676.05604	
282	2.81000000	-229.20648	871.04662	-398.83191	-189.21903	767.24680	-389.40540	-231.91166	486.31699	-397.46098	-260.50739	500.21214	-462.07967	-195.35208	357.57700	-368.63832	-143.76872	346.43417	-393.81095	-239.10262	863.68333	-788.38001	-190.48647	766.16872	-760.63170	-260.96825	485.82170	-776.49870	-292.13861	502.78426	-724.77797	-227.45891	348.81992	-789.49732	-174.99784	335.46529	-749.86753	-182.30613	656.47780	-387.82985	-258.80110	761.29096	-360.27351	-263.69073	650.09420	-376.06001	-257.66491	786.32318	-815.54730	-261.96727	665.14648	-828.51420	-140.97659	1175.25143	-417.84124	-137.33395	1068.00879	-403.62720	-187.97351	1042.11586	-369.89623	-251.79050	1168.95257	-397.13564	-241.79332	1054.99354	-379.51917	-167.79359	1153.47195	-798.37977	-156.49345	1017.94963	-802.15857	-279.63838	1154.77156	-809.75267	-266.27553	1013.48682	-809.19199	-98.45434	1315.74235	-487.69627	-271.56044	1389.04424	-550.44479	-110.72206	1320.02794	-729.87336	-279.83230	1392.55166	-663.17080	-218.12309	1832.18272	-601.11559	-183.60057	1828.88294	-481.37047	-163.48283	1850.90105	-717.42539	-91.45980	1796.57612	-576.06819	-84.72041	1792.04448	-613.82018	-169.52606	1831.03618	-368.39309	-128.51633	1722.53148	-188.51404	-160.42540	1796.28475	-183.33094	-61.38369	1878.99351	-170.98966	21.24420	1934.49873	-184.69475	28.33381	1928.17137	-149.23888	-134.15868	1873.30768	-834.01543	-110.19418	1819.63260	-1030.21200	-141.00362	1886.34412	-1021.08755	-85.83541	1951.46063	-1080.83583	-14.66795	1994.19014	-1180.85759	-43.46939	1997.13299	-1200.07858	-200.29639	1261.06156	-510.34210	-203.76579	1259.38471	-699.68013	-180.88428	1259.34018	-517.39925	-192.59260	1264.30378	-676.95950	
283	2.82000000	-228.67241	879.73417	-399.49849	-188.15489	775.63901	-390.72910	-232.20926	495.15645	-397.50812	-261.24618	508.67941	-462.13607	-195.32806	365.80141	-368.92282	-143.99927	354.60013	-394.27532	-236.30186	871.91984	-788.26338	-187.10241	774.45324	-758.32041	-255.89149	493.41265	-776.44221	-286.86735	509.81139	-724.90140	-220.85220	356.78981	-789.73638	-168.17535	344.01718	-750.27873	-181.34743	664.81455	-388.86019	-257.06644	769.83461	-360.15900	-262.65650	658.60236	-375.59196	-252.37249	794.58931	-815.81339	-255.52985	673.28037	-828.94665	-138.83147	1182.77161	-419.48973	-136.00297	1075.48563	-404.88427	-186.93940	1050.30785	-370.93075	-249.24984	1177.88890	-396.70347	-240.62549	1063.56254	-380.08890	-166.29191	1161.21446	-798.30657	-154.84549	1025.71831	-801.94859	-277.68380	1162.73213	-812.02313	-264.81550	1021.54679	-809.43148	-97.21530	1324.80904	-488.34626	-270.34976	1397.69742	-550.44761	-110.77789	1328.39067	-731.17364	-279.07359	1401.56261	-663.10675	-217.73693	1840.08265	-600.91029	-182.99850	1835.19781	-478.56980	-164.13131	1858.29576	-718.95908	-95.97522	1807.61168	-571.50978	-84.51427	1802.24896	-611.13579	-169.88598	1832.43930	-365.24374	-136.22853	1713.71460	-189.15838	-165.13572	1788.37447	-180.66218	-62.22571	1864.51447	-160.78148	23.92230	1916.24638	-169.22758	28.82707	1908.85091	-133.33721	-135.65719	1875.98435	-838.48778	-118.40154	1812.57062	-1033.24581	-146.77832	1880.81337	-1026.35574	-91.35885	1941.03006	-1090.33270	-22.46214	1975.69095	-1195.26659	-51.31662	1978.96196	-1212.80115	-199.07546	1270.00524	-510.60682	-203.63941	1268.02918	-699.91904	-179.77867	1267.31623	-518.04477	-192.16569	1272.80320	-678.00592	
284	2.83000000	-229.00673	887.07656	-400.16122	-188.57662	782.90225	-390.89371	-232.33067	502.49325	-397.96001	-261.32121	515.82429	-462.55115	-195.42176	373.24880	-368.59361	-143.99277	361.97400	-393.59514	-233.75800	878.65748	-788.08783	-184.04540	781.91040	-757.92310	-250.74348	500.15091	-776.54635	-281.42648	516.01630	-724.82173	-214.36667	363.90464	-790.33233	-161.21139	351.75134	-751.23112	-181.62799	672.06941	-388.94012	-257.71815	777.01739	-360.85347	-263.03336	665.66919	-376.21514	-248.98434	802.09141	-816.87946	-251.16094	680.33498	-829.20441	-137.19053	1189.46403	-420.76627	-134.96209	1082.08605	-405.89001	-186.10910	1057.74827	-371.49527	-247.22866	1185.81209	-396.54146	-239.76947	1071.07187	-380.30427	-164.99265	1168.54084	-798.35982	-153.48123	1033.00031	-801.82476	-275.96238	1170.09149	-813.36783	-263.44607	1029.00285	-809.90556	-96.09771	1332.51377	-489.17288	-269.14194	1406.17388	-550.51393	-110.95774	1335.87957	-732.45406	-278.26151	1410.08139	-663.05439	-217.20195	1847.41965	-600.58570	-182.03801	1840.76269	-476.56546	-164.71775	1864.88036	-720.44306	-95.97858	1814.94032	-571.32016	-84.35780	1809.11576	-610.63209	-168.78875	1833.57654	-361.80644	-143.67003	1704.19054	-191.04712	-169.75489	1779.43289	-178.85842	-63.69081	1849.00935	-152.27938	25.64197	1896.02714	-154.85990	28.53452	1887.42190	-119.83269	-137.17632	1878.02398	-843.52327	-126.09340	1804.13700	-1034.99097	-152.49076	1873.66971	-1030.98979	-97.89499	1928.43491	-1100.06591	-31.04449	1955.53531	-1208.26637	-59.48903	1959.07055	-1224.09445	-198.29670	1278.17885	-511.01209	-203.95068	1276.09029	-700.29417	-179.25082	1275.08097	-518.64871	-192.23737	1280.64493	-678.90741	
